<svg xmlns="http://www.w3.org/2000/svg" viewBox="0 0 428.9 53.25"><defs><style>.cls-1{fill:#ddd;}.cls-2{fill:#29c6c1;}.cls-3{fill:#22588e;}.cls-4{fill:#111942;}.cls-5{fill:#0c102c;}.cls-6{fill:#fff;}</style></defs><title>Asset 2new</title><g id="Layer_2" data-name="Layer 2"><g id="Layer_1-2" data-name="Layer 1"><g id="_Group_" data-name="&lt;Group&gt;"><g id="_Group_2" data-name="&lt;Group&gt;"><rect id="_Rectangle_" data-name="&lt;Rectangle&gt;" class="cls-1" width="13.31" height="13.31"/><rect id="_Rectangle_2" data-name="&lt;Rectangle&gt;" class="cls-2" x="20.57" width="33.28" height="13.31"/><rect id="_Rectangle_3" data-name="&lt;Rectangle&gt;" class="cls-3" x="40.54" y="19.36" width="13.31" height="13.31" transform="translate(94.4 52.04) rotate(-180)"/><rect id="_Rectangle_4" data-name="&lt;Rectangle&gt;" class="cls-4" y="19.36" width="33.28" height="13.31" transform="translate(33.28 52.04) rotate(-180)"/><rect id="_Rectangle_5" data-name="&lt;Rectangle&gt;" class="cls-5" y="39.94" width="53.85" height="13.31" transform="translate(53.85 93.19) rotate(-180)"/></g><path class="cls-6" d="M90.57,16.91H81.14V13.5h23v3.4H94.62v27.6h-4Z"/><path class="cls-6" d="M123.14,33.19c0,8.23-5.71,11.82-11.09,11.82-6,0-10.67-4.42-10.67-11.46,0-7.45,4.88-11.82,11-11.82C118.82,21.74,123.14,26.39,123.14,33.19Zm-17.67.23c0,4.88,2.81,8.56,6.76,8.56S119,38.35,119,33.33c0-3.77-1.89-8.56-6.67-8.56S105.48,29.19,105.48,33.42Z"/><path class="cls-6" d="M131.1,32.46h.09c.55-.78,1.33-1.75,2-2.53l6.53-7.68h4.88L136,31.4l9.8,13.11h-4.92l-7.68-10.67-2.07,2.3v8.37h-4V11.85h4Z"/><path class="cls-6" d="M149.77,34.11c.09,5.47,3.59,7.73,7.64,7.73a14.64,14.64,0,0,0,6.16-1.15l.69,2.9A18,18,0,0,1,156.86,45c-6.85,0-10.95-4.51-10.95-11.23s4-12,10.44-12c7.27,0,9.2,6.39,9.2,10.49a15.3,15.3,0,0,1-.14,1.89Zm11.87-2.9c0-2.58-1.06-6.58-5.61-6.58-4.09,0-5.89,3.77-6.21,6.58Z"/><path class="cls-6" d="M169.42,28.27c0-2.3,0-4.19-.18-6h3.59l.23,3.68h.09a8.19,8.19,0,0,1,7.36-4.19c3.08,0,7.87,1.84,7.87,9.48v13.3h-4V31.68c0-3.59-1.33-6.58-5.15-6.58a5.75,5.75,0,0,0-5.43,4.14,5.84,5.84,0,0,0-.28,1.89V44.51h-4Z"/><path class="cls-6" d="M222.41,40.3a8.36,8.36,0,0,1-3.5,3.29,12.17,12.17,0,0,1-5.75,1.24,14.37,14.37,0,0,1-5.93-1.17A10.32,10.32,0,0,1,203,40.37a9.33,9.33,0,0,1-1.79-4.88h5.61a5.75,5.75,0,0,0,1.82,3.63,5.9,5.9,0,0,0,4.25,1.52,5.06,5.06,0,0,0,3.7-1.29A4.44,4.44,0,0,0,217.95,36a4.26,4.26,0,0,0-1-2.87,6.79,6.79,0,0,0-2.39-1.77q-1.43-.64-3.91-1.47A34,34,0,0,1,205.73,28a9,9,0,0,1-3.24-2.81,8,8,0,0,1-1.33-4.83,8.23,8.23,0,0,1,1.29-4.6,8.37,8.37,0,0,1,3.68-3.06,13.28,13.28,0,0,1,5.52-1.08A12.09,12.09,0,0,1,219.53,14a9,9,0,0,1,3.33,6.26h-5.66a5.52,5.52,0,0,0-1.72-3.15,5.41,5.41,0,0,0-3.84-1.31,5.31,5.31,0,0,0-3.54,1.13,4,4,0,0,0-1.33,3.24,4.07,4.07,0,0,0,.92,2.74,6.38,6.38,0,0,0,2.32,1.7q1.4.62,3.84,1.45a33.84,33.84,0,0,1,5,2,9.14,9.14,0,0,1,3.31,2.88,8.33,8.33,0,0,1,1.36,5A8.92,8.92,0,0,1,222.41,40.3Z"/><path class="cls-6" d="M240.39,40v4.55h-3.22q-4,0-6.14-2T228.94,36V23.63h-3.63V19.17h3.63v-6.3h5.29v6.3h6.12v4.46h-6.12V36.14a4.29,4.29,0,0,0,.8,3,3.87,3.87,0,0,0,2.83.83Z"/><path class="cls-6" d="M260.22,20.55a9.16,9.16,0,0,1,3.45,4.51V19.17h5.24V44.51h-5.24V38.62a9.15,9.15,0,0,1-3.45,4.51,10,10,0,0,1-5.89,1.7,11.24,11.24,0,0,1-5.91-1.56,10.68,10.68,0,0,1-4.07-4.51,15.34,15.34,0,0,1-1.47-6.95,15.24,15.24,0,0,1,1.47-6.9,10.69,10.69,0,0,1,4.07-4.51,11.24,11.24,0,0,1,5.91-1.56A10,10,0,0,1,260.22,20.55Zm-9.87,5.13a8.62,8.62,0,0,0-2.09,6.14A8.61,8.61,0,0,0,250.35,38a7.3,7.3,0,0,0,5.59,2.23,7.62,7.62,0,0,0,4-1,7.35,7.35,0,0,0,2.76-2.92,9.21,9.21,0,0,0,1-4.42,9.25,9.25,0,0,0-1-4.39,7.32,7.32,0,0,0-2.76-2.94,7.62,7.62,0,0,0-4-1A7.3,7.3,0,0,0,250.35,25.67Z"/><path class="cls-6" d="M295.31,21.6Q298,24.46,298,29.75V44.51h-5.24V30.3A7.4,7.4,0,0,0,291,25a6.24,6.24,0,0,0-4.78-1.86,6.57,6.57,0,0,0-5,2A8.24,8.24,0,0,0,279.31,31V44.51h-5.24V19.17h5.24v5.57a8.5,8.5,0,0,1,3.4-4.42,9.85,9.85,0,0,1,5.52-1.56A9.24,9.24,0,0,1,295.31,21.6Z"/><path class="cls-6" d="M319,20.55a8.9,8.9,0,0,1,3.4,4.51V10.47h5.29v34h-5.29V38.62a8.89,8.89,0,0,1-3.4,4.51,10,10,0,0,1-5.89,1.7,11.24,11.24,0,0,1-5.91-1.56,10.68,10.68,0,0,1-4.07-4.51,15.34,15.34,0,0,1-1.47-6.95,15.24,15.24,0,0,1,1.47-6.9,10.69,10.69,0,0,1,4.07-4.51,11.24,11.24,0,0,1,5.91-1.56A10,10,0,0,1,319,20.55Zm-9.87,5.13A8.62,8.62,0,0,0,307,31.82,8.61,8.61,0,0,0,309.14,38a7.3,7.3,0,0,0,5.59,2.23,7.62,7.62,0,0,0,4-1,7.35,7.35,0,0,0,2.76-2.92,9.21,9.21,0,0,0,1-4.42,9.25,9.25,0,0,0-1-4.39,7.32,7.32,0,0,0-2.76-2.94,7.62,7.62,0,0,0-4-1A7.3,7.3,0,0,0,309.14,25.67Z"/><path class="cls-6" d="M348.9,20.55a9.16,9.16,0,0,1,3.45,4.51V19.17h5.24V44.51h-5.24V38.62a9.15,9.15,0,0,1-3.45,4.51,10,10,0,0,1-5.89,1.7,11.24,11.24,0,0,1-5.91-1.56A10.68,10.68,0,0,1,333,38.76a15.34,15.34,0,0,1-1.47-6.95,15.24,15.24,0,0,1,1.47-6.9,10.69,10.69,0,0,1,4.07-4.51A11.24,11.24,0,0,1,343,18.84,10,10,0,0,1,348.9,20.55ZM339,25.67a8.62,8.62,0,0,0-2.09,6.14A8.61,8.61,0,0,0,339,38a7.3,7.3,0,0,0,5.59,2.23,7.62,7.62,0,0,0,4-1,7.35,7.35,0,0,0,2.76-2.92,9.21,9.21,0,0,0,1-4.42,9.25,9.25,0,0,0-1-4.39,7.32,7.32,0,0,0-2.76-2.94,7.62,7.62,0,0,0-4-1A7.3,7.3,0,0,0,339,25.67Z"/><path class="cls-6" d="M371.67,20.2a10.44,10.44,0,0,1,5.52-1.45v5.7h-1.56a8.6,8.6,0,0,0-5.54,1.68Q368,27.81,368,31.68V44.51h-5.24V19.17H368v5A9.77,9.77,0,0,1,371.67,20.2Z"/><path class="cls-6" d="M396,20.55a8.9,8.9,0,0,1,3.4,4.51V10.47h5.29v34h-5.29V38.62a8.89,8.89,0,0,1-3.4,4.51,10,10,0,0,1-5.89,1.7,11.24,11.24,0,0,1-5.91-1.56,10.68,10.68,0,0,1-4.07-4.51,15.34,15.34,0,0,1-1.47-6.95,15.24,15.24,0,0,1,1.47-6.9,10.69,10.69,0,0,1,4.07-4.51,11.24,11.24,0,0,1,5.91-1.56A10,10,0,0,1,396,20.55Zm-9.87,5.13A8.62,8.62,0,0,0,384,31.82,8.61,8.61,0,0,0,386.14,38a7.3,7.3,0,0,0,5.59,2.23,7.62,7.62,0,0,0,4-1,7.35,7.35,0,0,0,2.76-2.92,9.21,9.21,0,0,0,1-4.42,9.25,9.25,0,0,0-1-4.39,7.32,7.32,0,0,0-2.76-2.94,7.62,7.62,0,0,0-4-1A7.3,7.3,0,0,0,386.14,25.67Z"/><path class="cls-6" d="M425.33,21.12a9.64,9.64,0,0,1,3.29,6.1h-5a5.36,5.36,0,0,0-1.77-3.33A5.63,5.63,0,0,0,418,22.62a4.51,4.51,0,0,0-3.06.94,3.22,3.22,0,0,0-1.08,2.55,2.53,2.53,0,0,0,.78,1.93,5.46,5.46,0,0,0,2,1.15,33.6,33.6,0,0,0,3.33.92,33.38,33.38,0,0,1,4.62,1.33,7.5,7.5,0,0,1,3,2.19,6.1,6.1,0,0,1,1.26,4.07,6.34,6.34,0,0,1-2.42,5.15,10,10,0,0,1-6.51,2,12.37,12.37,0,0,1-7.66-2.21,9.09,9.09,0,0,1-3.52-6.16h5.11a4.82,4.82,0,0,0,1.84,3.36A6.57,6.57,0,0,0,420,41.11a4.23,4.23,0,0,0,3-1A3.25,3.25,0,0,0,424,37.61a2.77,2.77,0,0,0-.83-2.12,5.74,5.74,0,0,0-2.07-1.22,28.82,28.82,0,0,0-3.4-.9,37.66,37.66,0,0,1-4.49-1.29A7,7,0,0,1,410.29,30a5.91,5.91,0,0,1-1.22-3.93,6.46,6.46,0,0,1,2.42-5.22,10.19,10.19,0,0,1,6.69-2A10.7,10.7,0,0,1,425.33,21.12Z"/></g></g></g></svg>